<svg width="17" height="9" viewBox="0 0 17 9" fill="none" xmlns="http://www.w3.org/2000/svg">
<path d="M16.2071 1.70711C16.5976 1.31658 16.5976 0.683417 16.2071 0.292893C15.8166 -0.0976311 15.1834 -0.0976311 14.7929 0.292893L16.2071 1.70711ZM8.5 8L7.79289 8.70711C7.98043 8.89464 8.23478 9 8.5 9C8.76522 9 9.01957 8.89464 9.20711 8.70711L8.5 8ZM2.20711 0.292893C1.81658 -0.0976311 1.18342 -0.0976311 0.792893 0.292893C0.402369 0.683417 0.402369 1.31658 0.792893 1.70711L2.20711 0.292893ZM14.7929 0.292893L7.79289 7.29289L9.20711 8.70711L16.2071 1.70711L14.7929 0.292893ZM9.20711 7.29289L2.20711 0.292893L0.792893 1.70711L7.79289 8.70711L9.20711 7.29289Z" fill="white"/>
</svg>
