<svg width="19" height="19" viewBox="0 0 19 19" fill="none" xmlns="http://www.w3.org/2000/svg">
<path d="M17.5 14.9997V9.45174V9.45098C17.5 8.91715 17.5 8.65009 17.4351 8.40156C17.3775 8.18122 17.2827 7.97226 17.1548 7.78384C17.0104 7.57121 16.8096 7.39532 16.4074 7.04346L11.6074 2.84346C10.8608 2.19017 10.4875 1.86358 10.0674 1.73933C9.69719 1.62986 9.30281 1.62986 8.93262 1.73933C8.51272 1.86351 8.13979 2.18982 7.394 2.84239L7.39278 2.84346L2.59277 7.04346L2.59182 7.0443C2.19032 7.39561 1.98944 7.57138 1.84521 7.78384C1.7173 7.97227 1.62255 8.18122 1.56497 8.40156C1.5 8.65021 1.5 8.91739 1.5 9.45174V14.9997C1.5 15.9316 1.5 16.3974 1.65224 16.765C1.85523 17.255 2.24481 17.6444 2.73486 17.8474C3.10241 17.9996 3.56835 17.9996 4.50023 17.9996C5.43211 17.9996 5.89782 17.9996 6.26537 17.8474C6.75542 17.6444 7.14467 17.255 7.34766 16.765C7.4999 16.3974 7.5 15.9315 7.5 14.9996V13.9996C7.5 12.895 8.39543 11.9996 9.5 11.9996C10.6046 11.9996 11.5 12.895 11.5 13.9996V14.9996C11.5 15.9315 11.5 16.3974 11.6522 16.765C11.8552 17.255 12.2448 17.6444 12.7349 17.8474C13.1024 17.9996 13.5683 17.9996 14.5002 17.9996C15.4321 17.9996 15.8978 17.9996 16.2654 17.8474C16.7554 17.6444 17.1447 17.255 17.3477 16.765C17.4999 16.3974 17.5 15.9316 17.5 14.9997Z" stroke="black" stroke-width="2" stroke-linecap="round" stroke-linejoin="round"/>
</svg>
