<svg width="21" height="16" viewBox="0 0 21 16" fill="none" xmlns="http://www.w3.org/2000/svg">
<path d="M2.5 2L10.7286 8L18.4999 2M19.5 4.19995V11.8C19.5 12.9201 19.5002 13.4802 19.2822 13.908C19.0905 14.2844 18.7841 14.5902 18.4078 14.782C17.98 15 17.4203 15 16.3002 15H4.7002C3.58009 15 3.01962 15 2.5918 14.782C2.21547 14.5902 1.90973 14.2844 1.71799 13.908C1.5 13.4802 1.5 12.9201 1.5 11.8V4.19995C1.5 3.07985 1.5 2.51986 1.71799 2.09204C1.90973 1.71572 2.21547 1.40973 2.5918 1.21799C3.01962 1 3.58009 1 4.7002 1H16.3002C17.4203 1 17.98 1 18.4078 1.21799C18.7841 1.40973 19.0905 1.71572 19.2822 2.09204C19.5002 2.51986 19.5 3.07985 19.5 4.19995Z" stroke="black" stroke-width="2" stroke-linecap="round" stroke-linejoin="round"/>
</svg>
