<svg width="21" height="20" viewBox="0 0 21 20" fill="none" xmlns="http://www.w3.org/2000/svg">
<path d="M8.00295 2.25722C7.69922 1.4979 6.96381 1 6.146 1H3.39474C2.3483 1 1.5 1.84834 1.5 2.89478C1.5 11.7895 8.71078 19 17.6055 19C18.6519 19 19.5 18.1518 19.5 17.1053L19.4999 14.354C19.4999 13.5362 19.0019 12.8009 18.2426 12.4971L15.6071 11.4429C14.9251 11.1701 14.1485 11.293 13.5842 11.7633L12.9031 12.3307C12.1084 12.9929 10.94 12.94 10.2085 12.2085L8.29136 10.2915C7.55993 9.56007 7.50722 8.39154 8.16943 7.59688L8.73682 6.91597C9.2071 6.35163 9.33002 5.57493 9.05719 4.89286L8.00295 2.25722Z" stroke="black" stroke-width="2" stroke-linecap="round" stroke-linejoin="round"/>
</svg>
