<svg width="21" height="20" viewBox="0 0 21 20" fill="none" xmlns="http://www.w3.org/2000/svg">
<path d="M12.5 16L19.5 16M1.5 16H3.5M3.5 16C3.5 17.3807 4.61929 18.5 6 18.5C7.38071 18.5 8.5 17.3807 8.5 16C8.5 14.6193 7.38071 13.5 6 13.5C4.61929 13.5 3.5 14.6193 3.5 16ZM18.5 10H19.5M1.5 10H8.5M11.5 4H19.5M11.5 4C11.5 2.61929 10.3807 1.5 9 1.5C7.61929 1.5 6.5 2.61929 6.5 4C6.5 5.38071 7.61929 6.5 9 6.5C10.3807 6.5 11.5 5.38071 11.5 4ZM1.5 4H2.5M15 12.5C13.6193 12.5 12.5 11.3807 12.5 10C12.5 8.61929 13.6193 7.5 15 7.5C16.3807 7.5 17.5 8.61929 17.5 10C17.5 11.3807 16.3807 12.5 15 12.5Z" stroke="white" stroke-width="2" stroke-linecap="round" stroke-linejoin="round"/>
</svg>
